<?xml version="1.0" standalone="no"?>
<!DOCTYPE svg PUBLIC "-//W3C//DTD SVG 20010904//EN"
 "http://www.w3.org/TR/2001/REC-SVG-20010904/DTD/svg10.dtd">
<svg version="1.0" xmlns="http://www.w3.org/2000/svg"
 width="1271.000000pt" height="1280.000000pt" viewBox="0 0 1271.000000 1280.000000"
 preserveAspectRatio="xMidYMid meet">
<metadata>
Created by potrace 1.15, written by Peter Selinger 2001-2017
</metadata>
<g transform="translate(0.000000,1280.000000) scale(0.100000,-0.100000)"
fill="#000000" stroke="none">
<path d="M4203 12775 c-69 -35 -241 -192 -402 -368 -74 -81 -136 -147 -138
-147 -2 0 -86 75 -186 166 -192 175 -244 210 -334 221 -99 11 -235 -36 -383
-132 -89 -58 -276 -242 -344 -338 -152 -215 -203 -426 -136 -559 14 -29 85
-108 191 -214 93 -93 169 -172 169 -177 0 -4 -180 -199 -400 -432 -358 -380
-425 -446 -654 -643 l-254 -220 -237 -122 -236 -122 -287 -48 c-158 -26 -339
-55 -402 -65 -63 -10 -118 -21 -122 -24 -17 -15 -41 -357 -42 -596 -1 -593
104 -1030 375 -1566 142 -279 271 -463 427 -610 69 -65 458 -373 747 -591 181
-136 321 -217 458 -264 154 -53 966 -220 972 -200 1 6 10 106 20 221 l17 210
100 314 c80 251 453 1261 486 1316 4 7 144 144 312 305 168 161 343 331 390
377 l86 83 404 -481 c223 -265 411 -492 419 -504 13 -22 -11 -54 -546 -721
-307 -385 -1240 -1549 -2072 -2588 -1317 -1644 -1549 -1928 -1788 -2195 -152
-168 -282 -320 -289 -338 -24 -57 -18 -150 15 -218 73 -155 242 -319 686 -663
116 -89 260 -206 320 -258 324 -283 725 -543 887 -576 85 -18 127 -1 209 81
162 162 359 556 359 719 0 33 -11 142 -25 243 -13 101 -40 309 -60 461 l-36
277 483 708 483 708 607 760 c519 650 698 866 1243 1495 350 404 642 741 649
748 9 10 149 -146 671 -749 572 -660 740 -862 1258 -1513 l599 -751 479 -703
479 -703 -35 -277 c-20 -152 -47 -360 -60 -461 -14 -101 -25 -210 -25 -243 0
-163 197 -557 359 -719 82 -82 124 -99 209 -81 162 33 563 293 887 576 61 52
204 169 320 258 444 344 613 508 686 663 33 68 39 161 15 218 -7 18 -137 170
-289 338 -239 267 -471 551 -1788 2195 -832 1039 -1765 2203 -2072 2588 -535
667 -559 699 -546 721 8 12 196 239 419 504 l404 481 86 -83 c47 -46 222 -216
390 -377 168 -161 308 -298 312 -305 33 -55 406 -1065 486 -1316 l100 -314 17
-210 c10 -115 19 -215 20 -221 6 -20 818 147 972 200 137 47 277 128 458 264
289 218 678 526 747 591 156 147 285 331 427 610 271 536 376 973 375 1566 -1
239 -25 581 -42 596 -4 3 -59 14 -122 24 -63 10 -244 39 -402 65 l-287 48
-236 122 -237 122 -254 220 c-229 197 -296 263 -654 643 -220 233 -400 428
-400 432 0 5 76 84 169 177 106 106 177 185 191 214 67 133 16 344 -136 559
-68 96 -255 280 -344 338 -148 96 -284 143 -383 132 -90 -11 -142 -46 -334
-221 -100 -91 -184 -166 -186 -166 -2 0 -64 66 -138 147 -161 176 -333 333
-402 368 -83 41 -104 36 -199 -47 -236 -204 -507 -504 -1105 -1218 -393 -470
-659 -775 -780 -893 l-69 -68 -115 118 c-157 163 -325 356 -749 863 -578 691
-854 995 -1088 1198 -95 83 -116 88 -199 47z m2204 -2445 c69 -92 381 -388
602 -573 l34 -28 -40 -42 c-22 -23 -53 -60 -69 -82 -33 -45 -566 -680 -576
-686 -6 -4 -523 605 -582 686 -16 22 -47 59 -69 82 l-40 42 34 28 c230 192
543 491 611 584 23 32 45 55 48 51 3 -4 25 -32 47 -62z m-5677 -840 c0 -11 -2
-20 -5 -20 -2 0 -9 9 -15 20 -9 16 -8 20 5 20 8 0 15 -9 15 -20z m11270 0 c-6
-11 -13 -20 -15 -20 -3 0 -5 9 -5 20 0 11 7 20 15 20 13 0 14 -4 5 -20z
m-8950 -2751 c0 -14 -16 -11 -29 5 -10 12 -8 13 8 9 12 -3 21 -9 21 -14z
m6640 6 c-14 -17 -30 -20 -30 -6 0 5 8 12 18 14 9 3 19 5 21 6 2 0 -2 -6 -9
-14z"/>
</g>
</svg>
